{
  "source": "C:\\Users\\Peter\\Desktop\\stuff\\MIUN\\quantitative_research\\video_compression\\videos\\BVI-HD\\BVI-HD_CDVL_videos\\ORIG\\CalmingWater_1920x1080_60fps.mp4",
  "output": "C:\\Users\\Peter\\Desktop\\stuff\\MIUN\\quantitative_research\\video_compression\\compressed_videos\\BVI-HD\\h264\\2.5\\CalmingWater_1920x1080_60fps_h264.mp4",
  "codec": "h264",
  "ok": "Input #0, mov,mp4,m4a,3gp,3g2,mj2, from 'C:\\Users\\Peter\\Desktop\\stuff\\MIUN\\quantitative_research\\video_compression\\videos\\BVI-HD\\BVI-HD_CDVL_videos\\ORIG\\CalmingWater_1920x1080_60fps.mp4':\n  Metadata:\n    major_brand     : isom\n    minor_version   : 512\n    compatible_brands: isomiso2avc1mp41\n    encoder         : Lavf54.28.101\n  Duration: 00:00:05.00, start: 0.000000, bitrate: 623787 kb/s\n  Stream #0:0[0x1](und): Video: h264 (High 4:4:4 Predictive) (avc1 / 0x31637661), yuv420p(progressive), 1920x1080, 623782 kb/s, 60 fps, 60 tbr, 60 tbn (default)\n    Metadata:\n      handler_name    : VideoHandler\n      vendor_id       : [0][0][0][0]\n[out#0/mp4 @ 000001cccd7f9b40] Codec AVOption b:a (set bitrate (in bits/s)) has not been used for any stream. The most likely reason is either wrong type (e.g. a video option with no video streams) or that it is a private option of some decoder which was not actually used for any stream.\nStream mapping:\n  Stream #0:0 -> #0:0 (h264 (native) -> h264 (libx264))\nPress [q] to stop, [?] for help\n[libx264 @ 000001ccce2e04c0] using cpu capabilities: MMX2 SSE2Fast SSSE3 SSE4.2 AVX FMA3 BMI2 AVX2\n[libx264 @ 000001ccce2e04c0] profile High, level 5.0, 4:2:0, 8-bit\n[libx264 @ 000001ccce2e04c0] 264 - core 165 r3222 b35605a - H.264/MPEG-4 AVC codec - Copyleft 2003-2025 - http://www.videolan.org/x264.html - options: cabac=1 ref=5 deblock=1:0:0 analyse=0x3:0x113 me=hex subme=8 psy=1 psy_rd=1.00:0.00 mixed_ref=1 me_range=16 chroma_me=1 trellis=2 8x8dct=1 cqm=0 deadzone=21,11 fast_pskip=1 chroma_qp_offset=-2 threads=18 lookahead_threads=3 sliced_threads=0 nr=0 decimate=1 interlaced=0 bluray_compat=0 constrained_intra=0 bframes=3 b_pyramid=2 b_adapt=1 b_bias=0 direct=3 weightb=1 open_gop=0 weightp=2 keyint=250 keyint_min=25 scenecut=40 intra_refresh=0 rc_lookahead=50 rc=cbr mbtree=1 bitrate=2500 ratetol=1.0 qcomp=0.60 qpmin=0 qpmax=69 qpstep=4 vbv_maxrate=2500 vbv_bufsize=2500 nal_hrd=none filler=0 ip_ratio=1.40 aq=1:1.00\nOutput #0, mp4, to 'C:\\Users\\Peter\\Desktop\\stuff\\MIUN\\quantitative_research\\video_compression\\compressed_videos\\BVI-HD\\h264\\2.5\\CalmingWater_1920x1080_60fps_h264.mp4':\n  Metadata:\n    major_brand     : isom\n    minor_version   : 512\n    compatible_brands: isomiso2avc1mp41\n    encoder         : Lavf62.3.100\n  Stream #0:0(und): Video: h264 (avc1 / 0x31637661), yuv420p(tv, progressive), 1920x1080, q=2-31, 2500 kb/s, 60 fps, 15360 tbn (default)\n    Metadata:\n      encoder         : Lavc62.11.100 libx264\n      handler_name    : VideoHandler\n      vendor_id       : [0][0][0][0]\n    Side data:\n      cpb: bitrate max/min/avg: 2500000/0/2500000 buffer size: 2500000 vbv_delay: N/A\nframe=    0 fps=0.0 q=0.0 size=       0KiB time=N/A bitrate=N/A speed=N/A elapsed=0:00:00.51    \nframe=    0 fps=0.0 q=0.0 size=       0KiB time=N/A bitrate=N/A speed=N/A elapsed=0:00:01.05    \nframe=    0 fps=0.0 q=0.0 size=       0KiB time=N/A bitrate=N/A speed=N/A elapsed=0:00:01.63    \nframe=    0 fps=0.0 q=0.0 size=       0KiB time=N/A bitrate=N/A speed=N/A elapsed=0:00:02.18    \nframe=    0 fps=0.0 q=0.0 size=       0KiB time=N/A bitrate=N/A speed=N/A elapsed=0:00:02.76    \nframe=    4 fps=1.2 q=53.0 size=       0KiB time=00:00:00.01 bitrate=  23.0kbits/s speed=0.00504x elapsed=0:00:03.30    \nframe=   13 fps=3.4 q=52.0 size=       0KiB time=00:00:00.18 bitrate=   2.1kbits/s speed=0.0474x elapsed=0:00:03.87    \nframe=   23 fps=5.2 q=51.0 size=       0KiB time=00:00:00.35 bitrate=   1.1kbits/s speed=0.0787x elapsed=0:00:04.44    \nframe=   34 fps=6.8 q=51.0 size=       0KiB time=00:00:00.51 bitrate=   0.7kbits/s speed=0.104x elapsed=0:00:04.99    \nframe=   44 fps=7.9 q=52.0 size=       0KiB time=00:00:00.70 bitrate=   0.5kbits/s speed=0.126x elapsed=0:00:05.56    \nframe=   53 fps=8.7 q=52.0 size=     256KiB time=00:00:00.85 bitrate=2467.7kbits/s speed=0.14x elapsed=0:00:06.09    \nframe=   64 fps=9.6 q=52.0 size=     256KiB time=00:00:01.03 bitrate=2029.9kbits/s speed=0.156x elapsed=0:00:06.63    \nframe=   75 fps= 10 q=52.0 size=     256KiB time=00:00:01.21 bitrate=1724.0kbits/s speed=0.17x elapsed=0:00:07.14    \nframe=   86 fps= 11 q=52.0 size=     256KiB time=00:00:01.40 bitrate=1498.2kbits/s speed=0.183x elapsed=0:00:07.67    \nframe=   96 fps= 12 q=52.0 size=     512KiB time=00:00:01.55 bitrate=2706.3kbits/s speed=0.189x elapsed=0:00:08.21    \nframe=  108 fps= 12 q=53.0 size=     512KiB time=00:00:01.75 bitrate=2397.0kbits/s speed=0.199x elapsed=0:00:08.79    \nframe=  121 fps= 13 q=53.0 size=     512KiB time=00:00:01.98 bitrate=2115.0kbits/s speed=0.212x elapsed=0:00:09.35    \nframe=  136 fps= 14 q=53.0 size=     512KiB time=00:00:02.21 bitrate=1892.3kbits/s speed=0.224x elapsed=0:00:09.89    \nframe=  147 fps= 14 q=52.0 size=     768KiB time=00:00:02.40 bitrate=2621.6kbits/s speed=0.229x elapsed=0:00:10.48    \nframe=  157 fps= 14 q=53.0 size=     768KiB time=00:00:02.56 bitrate=2451.4kbits/s speed=0.232x elapsed=0:00:11.04    \nframe=  167 fps= 14 q=53.0 size=     768KiB time=00:00:02.75 bitrate=2287.9kbits/s speed=0.236x elapsed=0:00:11.63    \nframe=  182 fps= 15 q=52.0 size=     768KiB time=00:00:03.00 bitrate=2097.3kbits/s speed=0.246x elapsed=0:00:12.17    \nframe=  197 fps= 16 q=52.0 size=    1024KiB time=00:00:03.25 bitrate=2581.2kbits/s speed=0.256x elapsed=0:00:12.69    \nframe=  211 fps= 16 q=52.0 size=    1024KiB time=00:00:03.48 bitrate=2408.3kbits/s speed=0.264x elapsed=0:00:13.21    \nframe=  227 fps= 17 q=51.0 size=    1024KiB time=00:00:03.75 bitrate=2237.1kbits/s speed=0.273x elapsed=0:00:13.73    \nframe=  274 fps= 19 q=46.0 size=    1280KiB time=00:00:04.46 bitrate=2347.6kbits/s speed=0.313x elapsed=0:00:14.25    \n[mp4 @ 000001cccd887ac0] Starting second pass: moving the moov atom to the beginning of the file\n[out#0/mp4 @ 000001cccd7f9b40] video:1505KiB audio:0KiB subtitle:0KiB other streams:0KiB global headers:0KiB muxing overhead: 0.168126%\nframe=  300 fps= 21 q=-1.0 Lsize=    1508KiB time=00:00:04.96 bitrate=2486.5kbits/s speed=0.341x elapsed=0:00:14.56    \n[libx264 @ 000001ccce2e04c0] frame I:2     Avg QP:49.21  size: 13530\n[libx264 @ 000001ccce2e04c0] frame P:252   Avg QP:50.91  size:  5458\n[libx264 @ 000001ccce2e04c0] frame B:46    Avg QP:50.82  size:  2997\n[libx264 @ 000001ccce2e04c0] consecutive B-frames: 79.3%  0.7%  0.0% 20.0%\n[libx264 @ 000001ccce2e04c0] mb I  I16..4: 59.8% 40.1%  0.0%\n[libx264 @ 000001ccce2e04c0] mb P  I16..4: 21.7%  0.9%  0.0%  P16..4: 19.3%  0.5%  0.9%  0.0%  0.0%    skip:56.9%\n[libx264 @ 000001ccce2e04c0] mb B  I16..4:  0.4%  0.2%  0.0%  B16..8: 24.0%  0.3%  0.0%  direct: 2.1%  skip:73.0%  L0:48.5% L1:50.8% BI: 0.8%\n[libx264 @ 000001ccce2e04c0] 8x8 transform intra:5.1% inter:98.7%\n[libx264 @ 000001ccce2e04c0] direct mvs  spatial:87.0% temporal:13.0%\n[libx264 @ 000001ccce2e04c0] coded y,uvDC,uvAC intra: 0.4% 37.7% 0.2% inter: 0.6% 10.6% 0.0%\n[libx264 @ 000001ccce2e04c0] i16 v,h,dc,p: 42% 35%  6% 17%\n[libx264 @ 000001ccce2e04c0] i8 v,h,dc,ddl,ddr,vr,hd,vl,hu:  2%  3% 75%  3%  5%  2%  5%  2%  3%\n[libx264 @ 000001ccce2e04c0] i4 v,h,dc,ddl,ddr,vr,hd,vl,hu:  7%  1% 34% 14%  6%  5% 11%  8% 14%\n[libx264 @ 000001ccce2e04c0] i8c dc,h,v,p: 84% 13%  3%  0%\n[libx264 @ 000001ccce2e04c0] Weighted P-Frames: Y:3.2% UV:0.4%\n[libx264 @ 000001ccce2e04c0] ref P L0: 61.3%  0.7% 13.4%  6.9%  8.6%  8.8%  0.3%\n[libx264 @ 000001ccce2e04c0] ref B L0: 77.2% 12.5%  7.3%  3.0%\n[libx264 @ 000001ccce2e04c0] ref B L1: 92.9%  7.1%\n[libx264 @ 000001ccce2e04c0] kb/s:2464.55\n",
  "seconds": 14.899896144866943,
  "probe_out": {}
}